<svg id="Layer_1" data-name="Layer 1" xmlns="http://www.w3.org/2000/svg" viewBox="0 0 108 108"><defs><style>.cls-1{fill:#262626;}</style></defs><path class="cls-1" d="M103,69.46c-1.62,5-8.32,7.62-16.77,7.28,2.94,7.93,2.52,15.11-1.74,18.2s-11.22,1.28-17.85-4c-2.28,8.15-6.85,13.71-12.12,13.71S44.7,99.12,42.43,91c-6.63,5.25-13.6,7.07-17.86,4s-4.68-10.27-1.74-18.2c-8.45.35-15.15-2.28-16.77-7.28S8.31,58.39,15.35,53.7C8.31,49,4.43,43,6.06,38s8.32-7.64,16.77-7.28c-2.94-7.92-2.51-15.11,1.74-18.21s11.23-1.28,17.86,4C44.7,8.3,49.28,2.73,54.53,2.73S64.37,8.3,66.65,16.44c6.63-5.26,13.59-7.07,17.85-4s4.68,10.29,1.74,18.21C94.69,30.32,101.39,33,103,38S100.76,49,93.72,53.7C100.76,58.39,104.64,64.45,103,69.46Z"/></svg>