<svg id="Layer_1" data-name="Layer 1" xmlns="http://www.w3.org/2000/svg" viewBox="0 0 108 108"><defs><style>.cls-1{fill:#262626;}</style></defs><path class="cls-1" d="M55.62,7.75l14.9,27.36a1.85,1.85,0,0,0,1.28.94l30.63,5.71a1.85,1.85,0,0,1,1,3.08L82,67.46A1.87,1.87,0,0,0,81.52,69l4,30.9a1.84,1.84,0,0,1-2.62,1.9L54.79,88.39a1.82,1.82,0,0,0-1.58,0L25.07,101.77a1.84,1.84,0,0,1-2.62-1.9l4-30.9A1.87,1.87,0,0,0,26,67.46L4.57,44.84a1.85,1.85,0,0,1,1-3.08L36.2,36.05a1.85,1.85,0,0,0,1.28-.94L52.38,7.75A1.85,1.85,0,0,1,55.62,7.75Z"/></svg>