<svg id="Layer_1" data-name="Layer 1" xmlns="http://www.w3.org/2000/svg" viewBox="0 0 108 108"><defs></defs><path class="cls-1" d="M96.08,47.53A42.86,42.86,0,0,0,60.47,11.92V6.69H47.52v5.23A42.87,42.87,0,0,0,11.91,47.53H6.68V60.48h5.23A42.28,42.28,0,0,0,47.52,96.09v5.25H60.47V96.09A42.88,42.88,0,0,0,96.08,60.48h5.24V47.53Zm-45-37.25h5.77v5.78H51.11ZM10.27,56.89V51.11h5.78v5.78ZM56.88,97.75H51.11V92h5.77Zm3.59-5.21V88.39H47.52v4.16A38.79,38.79,0,0,1,15.45,60.48h4.19V47.53H15.46A39.33,39.33,0,0,1,47.52,15.47v4.17H60.47V15.47A39.3,39.3,0,0,1,92.53,47.53H88.37V60.48h4.16A39.33,39.33,0,0,1,60.47,92.54ZM97.73,56.89H92V51.11h5.78Z"/></svg>