<svg id="Layer_1" data-name="Layer 1" xmlns="http://www.w3.org/2000/svg" viewBox="0 0 108 108"><defs><style>.cls-1{fill:#fff;}</style></defs><path d="M6.46,8.16V6.48H8.14c.36.17.71.36,1.08.5L98.45,42.5c.75.3,1.59.54,1.53,1.58s-.91,1.16-1.71,1.34q-11.1,2.47-22.2,5l-6.4,1.47,1.13,1.18,29.77,29.78a8.39,8.39,0,0,1,.83.86,1.25,1.25,0,0,1-.07,1.83l-.84.85L85.18,101.76H84a.63.63,0,0,0-.1-.2l-31.07-31c-.26-.26-.54-.5-.9-.82-.14.45-.23.72-.3,1q-2.19,9.81-4.39,19.63c-.63,2.81-1.22,5.62-1.94,8.41a1.93,1.93,0,0,1-1.21,1.19c-.38.07-.91-.55-1.33-.92-.16-.14-.19-.43-.28-.65Q26.26,57.61,10.05,16.89C8.89,14,7.66,11.07,6.46,8.16Z"/><path class="cls-1" d="M85.18,101.76l15.31-15.38.84-.85a1.25,1.25,0,0,0,.07-1.83,8.39,8.39,0,0,0-.83-.86L70.8,53.06l-1.13-1.18,6.4-1.47q11.1-2.5,22.2-5c.8-.18,1.65-.29,1.71-1.34s-.78-1.28-1.53-1.58L9.22,7c-.37-.14-.72-.33-1.08-.5H102v95.28Z"/><path class="cls-1" d="M6.46,8.16c1.2,2.91,2.43,5.81,3.59,8.73Q26.26,57.61,42.46,98.35c.09.22.12.51.28.65.42.37.95,1,1.33.92a1.93,1.93,0,0,0,1.21-1.19c.72-2.79,1.31-5.6,1.94-8.41q2.2-9.81,4.39-19.63c.07-.27.16-.54.3-1,.36.32.64.56.9.82l31.07,31a.63.63,0,0,1,.1.2H6.46Z"/></svg>